# xmcd
#
# Track frame offsets: 
#        150
#        10497
#        19865
#        32195
#        40710
#        51267
#        61575
#        70882
#        81050
#        92557
#        102147
#        111365
#        122377
#        131225
#        140042
#        149832
#        160042
#        170265
#        180705
#        189335
#        201940
#        212155
#        223730
#        232412
#        241752
#        251402
#        260802
#        271367
#        282170
#        293277
#        303915
#
# Disc length: 4196 seconds
#
# Revision: 1
# Processed by: cddbd v1.5.2PL0 Copyright (c) Steve Scherf et al.
# Submitted via: ExactAudioCopy v1.0b1
#
DISCID=cc10621f
DTITLE=Sheb Wooley - The Purple People Eater
DYEAR=1997
DGENRE=Pop
TTITLE0=The Purple People Eater (mono)
TTITLE1=Walkin' Guitar (mono)
TTITLE2=Wild And Wooley, Big Unruly Me (mono)
TTITLE3=Josie (Brown) (mono)
TTITLE4=The Birth Of Rock 'N' Roll (mono)
TTITLE5=Honey I'm Lonesome (The Telegraph Song) (mono)
TTITLE6=A King Or A Clown (mono)
TTITLE7=You Can Do It (mono)
TTITLE8=The Purple People Eater #2 (mono)
TTITLE9=Nyoom (mono)
TTITLE10=I Found Me An Angel (mono)
TTITLE11=Pygmy Love (mono)
TTITLE12=Mirage (mono)
TTITLE13=Do I Remember (mono)
TTITLE14=Running With The Night Crowd (mono)
TTITLE15=The Taste Of Ashes (mono)
TTITLE16=Let The Big Wind Blow (mono)
TTITLE17=Santa Claus Meets The Purple People Eater (mono)
TTITLE18=Crazy Butterfly (mono)
TTITLE19=Skin Tight, Pin Stripped, Purple Pedal Purshers (mono)
TTITLE20=The Who Who Wallidinks (mono)
TTITLE21=Star Of Love (mono)
TTITLE22=Never Look Down (mono)
TTITLE23=Reach For The Moon (mono)
TTITLE24=Sixteen Violins (mono)
TTITLE25=Monkey Jive (mono)
TTITLE26=The Chase (mono)
TTITLE27=Luke The Spook (mono)
TTITLE28=I Can't Believe You're Mine (mono)
TTITLE29=Google Eye (mono)
TTITLE30=Are You Satisfied (mono)
EXTD=
EXTT0=
EXTT1=
EXTT2=
EXTT3=
EXTT4=
EXTT5=
EXTT6=
EXTT7=
EXTT8=
EXTT9=
EXTT10=
EXTT11=
EXTT12=
EXTT13=
EXTT14=
EXTT15=
EXTT16=
EXTT17=
EXTT18=
EXTT19=
EXTT20=
EXTT21=
EXTT22=
EXTT23=
EXTT24=
EXTT25=
EXTT26=
EXTT27=
EXTT28=
EXTT29=
EXTT30=
PLAYORDER=
